<?xml version="1.0" encoding="utf-8"?><!DOCTYPE svg PUBLIC "-//W3C//DTD SVG 1.1//EN" "http://www.w3.org/Graphics/SVG/1.1/DTD/svg11.dtd"><svg version="1.1" id="Layer_1" xmlns="http://www.w3.org/2000/svg" xmlns:xlink="http://www.w3.org/1999/xlink" x="0px" y="0px" viewBox="0 0 367.35 231.404" xml:space="preserve"><path  d="M202.603,69.737c-1.947,17.565-24.83,71.664-57.905,70.951c-19.572-0.426-36.515-15.263-36.51-38.756 c0-25.986,21.059-39.202,36.51-39.202c22.14,0,35.763,21.707,35.982,36.532c10.648-10.173,16.709-19.184,20.332-32.315 c-11.764-19.302-33.055-31.55-56.314-31.55c-35.615,0-66.307,28.902-66.307,66.535c0,35.619,29.35,66.081,66.307,66.081 c34.503,0,65.858-25.759,65.858-66.527C210.557,89.771,207.648,79.02,202.603,69.737z"/><path d="M359.396,101.991c-1.947,17.567-24.83,71.664-57.906,70.951c-19.572-0.427-36.516-15.262-36.512-38.753 c0.004-25.988,21.059-39.204,36.512-39.204c22.141,0,35.764,21.709,35.982,36.536c10.646-10.176,16.709-19.188,20.33-32.317 C346.041,79.9,324.752,67.652,301.49,67.652c-35.613,0-66.303,28.902-66.303,66.537c0,35.615,29.342,66.077,66.303,66.077 c34.504,0,65.859-25.759,65.859-66.524C367.35,122.026,364.441,111.275,359.396,101.991z"/><path  d="M49.2,193.032c-4.328,0-9.354-0.748-14.937-2.224c-5.68-1.505-11.099-4.172-16.106-7.926 c-5.033-3.773-9.354-8.889-12.842-15.204C1.788,161.298,0,153.276,0,143.835v-2.5h29.622l0.15,2.341 c0.439,6.874,2.358,12.306,5.705,16.145c3.265,3.755,7.908,5.579,14.197,5.579c4.957,0,8.888-1.386,12.018-4.236 c3.058-2.783,4.544-6.503,4.544-11.372c0-2.401-0.489-4.467-1.453-6.14c-1.011-1.745-2.425-3.292-4.2-4.594 c-1.898-1.384-4.209-2.649-6.865-3.756c-2.732-1.141-5.733-2.285-8.921-3.402c-3.627-1.261-7.551-2.714-11.993-4.44 c-4.504-1.75-8.767-4.198-12.671-7.273c-3.976-3.128-7.356-7.146-10.045-11.941c-2.741-4.875-4.131-11.099-4.131-18.495 c0-5.261,1.072-10.371,3.187-15.186c2.095-4.779,5.075-9.123,8.857-12.91c3.792-3.791,8.472-6.86,13.915-9.123 c5.452-2.261,11.506-3.407,17.997-3.407c4.015,0,8.486,0.671,13.291,1.996c4.894,1.351,9.542,3.653,13.816,6.843 c4.305,3.208,8.017,7.468,11.03,12.66c3.059,5.264,4.696,11.841,4.865,19.547l0.056,2.555H63.475l-0.313-2.137 c-0.701-4.778-2.312-8.32-4.788-10.527c-2.486-2.22-5.643-3.299-9.651-3.299c-3.998,0-7.108,1.071-9.507,3.274 c-2.344,2.145-3.482,4.853-3.482,8.282c0,2.225,0.438,4.071,1.303,5.489c0.914,1.506,2.185,2.806,3.78,3.869 c1.738,1.159,3.756,2.147,5.998,2.94c2.436,0.864,4.997,1.692,7.616,2.461c2.684,0.844,6.242,2.056,10.619,3.617 c4.657,1.667,9.325,4.229,13.876,7.617c4.596,3.43,8.617,7.911,11.955,13.321c3.408,5.54,5.136,12.514,5.136,20.731 c0,6.158-1.059,11.994-3.148,17.345c-2.105,5.387-5.22,10.166-9.257,14.204c-4.042,4.036-9.01,7.267-14.768,9.603 C63.084,191.848,56.477,193.032,49.2,193.032z"/><path d="M239.662,161.651v46.123c0,23.578-22.803,23.578-22.803,23.578l-33.723,0.052l-0.1-33.03 c0,0,10.977,0.099,19.166,0.081c2.664,0.055,4.916-2.502,4.844-4.135c0.105-34.37-0.035-140.196-0.035-140.196h32.65v79.288V161.651 z"/><path fill="#A4C93E" d="M223.693-0.001c10.627,0,19.434,8.81,19.434,19.692c0,10.624-8.807,19.434-19.434,19.434 c-10.885,0-19.693-8.81-19.693-19.434C204,8.809,212.809-0.001,223.693-0.001"/><g> <g><path  d="M238.975,229.824v-5.925h-1.312v-0.915h3.621v0.915h-1.312v5.925H238.975z"/><path  d="M248.307,229.824v-5.776h-0.027l-2.301,5.776h-0.602l-2.307-5.776h-0.021v5.776h-0.998v-6.84h1.572 l2.051,5.239l2.061-5.239h1.57v6.84H248.307z"/></g></g></svg>