<?xml version="1.0" encoding="utf-8"?>
<!-- Generator: Adobe Illustrator 17.1.0, SVG Export Plug-In . SVG Version: 6.00 Build 0)  -->
<!DOCTYPE svg PUBLIC "-//W3C//DTD SVG 1.1//EN" "http://www.w3.org/Graphics/SVG/1.1/DTD/svg11.dtd">
<svg version="1.1" id="Layer_1" xmlns="http://www.w3.org/2000/svg" xmlns:xlink="http://www.w3.org/1999/xlink" x="0px" y="0px"
	 viewBox="0 0 42 42" enable-background="new 0 0 42 42" xml:space="preserve">
<path fill="#F49B34" d="M23.2,15.7c-0.2,2-2.8,8.2-6.6,8.1c-2.2,0-4.2-1.7-4.2-4.4c0-3,2.4-4.5,4.2-4.5c2.5,0,4.1,2.5,4.1,4.2
	c1.2-1.2,1.9-2.2,2.3-3.7c-1.3-2.2-3.8-3.6-6.4-3.6c-4.1,0-7.6,3.3-7.6,7.6c0,4.1,3.4,7.6,7.6,7.6c3.9,0,7.5-2.9,7.5-7.6
	C24.1,18,23.7,16.8,23.2,15.7z"/>
<path fill="#D81C77" d="M41.1,19.4c-0.2,2-2.8,8.2-6.6,8.1c-2.2,0-4.2-1.7-4.2-4.4c0-3,2.4-4.5,4.2-4.5c2.5,0,4.1,2.5,4.1,4.2
	c1.2-1.2,1.9-2.2,2.3-3.7c-1.3-2.2-3.8-3.6-6.4-3.6c-4.1,0-7.6,3.3-7.6,7.6c0,4.1,3.4,7.6,7.6,7.6c3.9,0,7.5-2.9,7.5-7.6
	C42,21.7,41.7,20.5,41.1,19.4z"/>
<path fill="#20AFD7" d="M5.6,29.8c-0.5,0-1.1-0.1-1.7-0.3c-0.6-0.2-1.3-0.5-1.8-0.9c-0.6-0.4-1.1-1-1.5-1.7C0.2,26.2,0,25.3,0,24.2
	v-0.3h3.4v0.3C3.5,25,3.7,25.6,4.1,26s0.9,0.6,1.6,0.6c0.6,0,1-0.2,1.4-0.5c0.3-0.3,0.5-0.7,0.5-1.3c0-0.3-0.1-0.5-0.2-0.7
	s-0.3-0.4-0.5-0.5c-0.2-0.2-0.5-0.3-0.8-0.4s-0.7-0.3-1-0.4c-0.4-0.1-0.9-0.3-1.4-0.5s-1-0.5-1.4-0.8c-0.5-0.4-0.8-0.8-1.1-1.4
	S0.7,18.8,0.7,18c0-0.6,0.1-1.2,0.4-1.7c0.2-0.5,0.6-1,1-1.5c0.4-0.4,1-0.8,1.6-1c0.6-0.3,1.3-0.4,2.1-0.4c0.5,0,1,0.1,1.5,0.2
	c0.6,0.2,1.1,0.4,1.6,0.8c0.5,0.4,0.9,0.9,1.3,1.4c0.3,0.6,0.5,1.4,0.6,2.2v0.3H7.3v-0.2c-0.1-0.5-0.3-1-0.5-1.2
	c-0.3-0.3-0.6-0.4-1.1-0.4s-0.8,0.1-1.1,0.4c-0.3,0.2-0.4,0.6-0.4,0.9s0.1,0.5,0.1,0.6c0.1,0.2,0.2,0.3,0.4,0.4
	c0.2,0.1,0.4,0.2,0.7,0.3c0.3,0.1,0.6,0.2,0.9,0.3c0.3,0.1,0.7,0.2,1.2,0.4c0.5,0.4,1,0.7,1.5,1c0.5,0.4,1,0.9,1.4,1.5
	s0.6,1.4,0.6,2.4c0,0.7-0.1,1.4-0.4,2c-0.2,0.6-0.6,1.2-1.1,1.6c-0.5,0.5-1,0.8-1.7,1.1C7.2,29.7,6.5,29.8,5.6,29.8z"/>
<path fill="#A4C93E" d="M27.4,26.3v5.3c0,2.7-2.6,2.7-2.6,2.7h-3.9v-3.8c0,0,1.3,0,2.2,0c0.3,0,0.6-0.3,0.6-0.5c0-3.9,0-16,0-16h3.7
	v9L27.4,26.3L27.4,26.3z"/>
<path fill="#A4C93E" d="M25.6,7.8c1.2,0,2.2,1,2.2,2.3c0,1.2-1,2.2-2.2,2.2s-2.3-1-2.3-2.2C23.3,8.8,24.3,7.8,25.6,7.8"/>
<g>
	<g>
		<path fill="#818387" d="M28.1,33.8v-0.7H28V33h0.4v0.1h-0.1v0.7H28.1z"/>
		<path fill="#818387" d="M29.2,33.8v-0.6h0l-0.3,0.6h-0.1l-0.3-0.6h0v0.6h-0.1V33h0.2l0.2,0.6l0.2-0.6h0.2v0.8H29.2z"/>
	</g>
</g>
</svg>
